<svg xmlns="http://www.w3.org/2000/svg" width="256" height="256" viewBox="0 0 256 256">
  <defs>
    <linearGradient id="shell" x1="0" y1="0" x2="0" y2="1">
      <stop offset="0" stop-color="#ff9f46"/>
      <stop offset="1" stop-color="#e0600d"/>
    </linearGradient>
    <linearGradient id="gloss" x1="0" y1="0" x2="0" y2="1">
      <stop offset="0" stop-color="#ffffff" stop-opacity="0.20"/>
      <stop offset="1" stop-color="#ffffff" stop-opacity="0"/>
    </linearGradient>
  </defs>
  <rect x="16" y="16" width="224" height="224" rx="58" fill="url(#shell)"/>
  <path d="M74 16h108a58 58 0 0 1 58 58v32c-36-13-73-20-112-20s-76 7-112 20V74a58 58 0 0 1 58-58z"
        fill="url(#gloss)"/>
  <!-- lamp shade, post and base -->
  <path d="M101 56h54a6 6 0 0 1 5.6 3.9l17.6 46A6 6 0 0 1 172.6 114H83.4a6 6 0 0 1-5.6-8.1l17.6-46A6 6 0 0 1 101 56z"
        fill="#ffffff"/>
  <rect x="117" y="114" width="22" height="80" fill="#ffffff"/>
  <rect x="84" y="192" width="88" height="24" rx="12" fill="#ffffff"/>
</svg>
